:SAMPLES-PER-SECOND 30
:FRAME-RANGE 1-4244
:FULLY-SPECIFIED
:DEGREES
3581
root  -67.3957 3.31788 3.25565 74.672 19.8667 -168.737
RightUpLeg  -48.3362 -12.2505 1.43885
RightLeg  101.428 -0.976718 5.49227
RightFoot  -5.7604 -0.456445 8.54304
RightToes  -1.33073e-015 0 -3.6325e-017
Spine  16.5209 0.179292 5.95823
Spine1  9.45866 3.75114 -7.76173
HEad  41.446 8.13315 -3.33402
LeftShoulder1  1.3647 -6.40215 -6.62815
LeftArm  -6.37541 5.98537 -57.6827
LeftForeArm  42.2983 -29.812 -4.18404
LeftHand  0.0167246 5.81139 10.1323
RightShoulder  2.44346 5.24902 22.4095
RightArm  -42.3144 15.5729 60.7366
RightForeArm  39.0744 11.5381 -1.92385
RightHand  -1.2922 -2.05207 -43.2835
LeftUpLeg  -42.0503 -7.87894 37.4464
LeftLeg  106.795 -11.2381 29.1952
LeftFoot  3.25839 -1.07916 8.25409
LeftToes  2.72522e-012 8.43823e-011 6.24977e-012
3582
root  -67.1337 3.26871 3.37965 73.3187 20.0593 -171.897
RightUpLeg  -47.5601 -12.726 1.0623
RightLeg  101.788 -1.20034 6.25029
RightFoot  -5.82707 -0.473219 8.98303
RightToes  -1.33073e-015 0 -3.6325e-017
Spine  16.8956 0.201887 5.66071
Spine1  8.97889 3.84013 -8.4046
HEad  42.8286 8.26177 -3.28775
LeftShoulder1  1.30134 -6.0023 -6.54167
LeftArm  -5.01936 6.013 -57.222
LeftForeArm  41.4058 -29.848 -4.23666
LeftHand  0.00252361 5.63851 10.208
RightShoulder  2.45969 5.21834 22.7213
RightArm  -43.5213 12.7606 60.6964
RightForeArm  41.0443 13.9052 -0.816536
RightHand  -1.3239 -2.02072 -43.875
LeftUpLeg  -39.5528 -9.23792 37.8104
LeftLeg  106.162 -10.8539 29.233
LeftFoot  3.51112 -0.918097 6.87113
LeftToes  2.72522e-012 8.43823e-011 6.24977e-012
3583
root  -66.8848 3.22524 3.51493 72.1772 20.244 -175.186
RightUpLeg  -47.3624 -13.6679 0.738737
RightLeg  102.422 -1.18898 5.93101
RightFoot  -5.21807 -0.510436 8.86035
RightToes  -1.33073e-015 0 -3.6325e-017
Spine  16.9503 0.116429 5.52139
Spine1  8.54774 3.79965 -9.00176
HEad  44.1801 8.10912 -3.54726
LeftShoulder1  1.26631 -5.63591 -6.74527
LeftArm  -3.38983 5.52261 -56.7059
LeftForeArm  40.9657 -30.108 -4.31688
LeftHand  0.000763706 5.62099 10.1169
RightShoulder  2.46521 5.30391 22.4855
RightArm  -45.2066 10.3656 61.2328
RightForeArm  42.495 15.8423 -0.0505517
RightHand  -1.44141 -1.79237 -44.6389
LeftUpLeg  -37.2001 -10.5441 37.9613
LeftLeg  105.818 -10.3181 28.4812
LeftFoot  2.81462 -0.67674 5.3088
LeftToes  2.72522e-012 8.43823e-011 6.24977e-012
3584
root  -66.6302 3.22904 3.62847 71.1821 20.2523 -178.08
RightUpLeg  -47.2404 -15.0664 -0.52197
RightLeg  103.242 -1.38348 6.31688
RightFoot  -4.92174 -0.493506 8.18742
RightToes  -1.33073e-015 0 -3.6325e-017
Spine  16.6072 0.0619589 4.75961
Spine1  8.54165 3.49463 -8.86107
HEad  45.2776 7.41669 -4.02213
LeftShoulder1  1.25202 -5.28979 -7.19919
LeftArm  -1.30105 4.08601 -56.5862
LeftForeArm  40.5918 -29.9629 -4.30334
LeftHand  0.00310592 5.65435 9.98764
RightShoulder  2.45367 5.41776 21.9476
RightArm  -48.2492 7.92679 61.9577
RightForeArm  44.7109 18.512 0.866152
RightHand  -1.55842 -1.57722 -45.4361
LeftUpLeg  -34.952 -12.2778 37.4165
LeftLeg  105.506 -9.92058 27.9751
LeftFoot  1.96889 -0.411347 3.42245
LeftToes  2.72522e-012 8.43823e-011 6.24977e-012
3585
root  -66.3937 3.28445 3.69484 70.5478 20.3571 179.371
RightUpLeg  -47.2594 -17.0698 -2.31003
RightLeg  104.041 -1.62812 6.83991
RightFoot  -4.64843 -0.518252 8.3062
RightToes  -1.33073e-015 0 -3.6325e-017
Spine  15.9339 -0.0939963 4.14854
Spine1  8.8257 3.05855 -8.54974
HEad  45.5298 7.11997 -4.93305
LeftShoulder1  1.24322 -5.02637 -7.59739
LeftArm  1.50994 1.87894 -57.1326
LeftForeArm  40.0201 -29.8057 -4.29719
LeftHand  -0.0115922 5.47902 9.84245
RightShoulder  2.39691 5.21612 21.9438
RightArm  -50.4338 6.469 61.4996
RightForeArm  45.2583 20.8423 1.82163
RightHand  -1.97789 -0.732146 -46.9662
LeftUpLeg  -33.0184 -14.1329 36.7772
LeftLeg  105.394 -9.46068 26.9961
LeftFoot  0.880151 -0.222578 2.02937
LeftToes  2.72522e-012 8.43823e-011 6.24977e-012
3586
root  -66.2323 3.34047 3.72784 70.4663 20.7471 177.426
RightUpLeg  -47.6848 -20.0778 -4.5904
RightLeg  104.495 -1.90694 7.57628
RightFoot  -3.35724 -0.603055 8.29841
RightToes  -1.33073e-015 0 -3.6325e-017
Spine  15.4856 -0.257145 4.01976
Spine1  8.39981 2.60098 -7.84516
HEad  46.7611 5.92019 -4.91905
LeftShoulder1  1.36726 -5.67571 -7.93697
LeftArm  5.23322 -0.756934 -58.2724
LeftForeArm  39.7115 -29.4057 -4.22386
LeftHand  -0.012687 5.46377 9.92332
RightShoulder  2.22985 4.45708 22.5684
RightArm  -51.8083 3.35097 60.7109
RightForeArm  46.1588 28.2255 3.64979
RightHand  -1.32555 -2.14297 -45.4441
LeftUpLeg  -31.8983 -16.3975 35.8725
LeftLeg  105.508 -8.98609 25.635
LeftFoot  -0.354392 -0.0669466 0.718522
LeftToes  2.72522e-012 8.43823e-011 6.24977e-012
3587
root  -66.1261 3.39322 3.74294 70.5079 21.2713 175.676
RightUpLeg  -47.9179 -23.3548 -7.13872
RightLeg  104.473 -2.00331 7.90705
RightFoot  -2.36642 -0.684652 8.5023
RightToes  -1.33073e-015 0 -3.6325e-017
Spine  14.8712 -0.517626 4.01289
Spine1  8.52752 2.02869 -6.69526
HEad  46.835 4.58462 -4.78247
LeftShoulder1  1.48036 -6.36822 -8.02615
LeftArm  9.99055 -4.08468 -60.0129
LeftForeArm  38.848 -29.017 -4.18173
LeftHand  -0.0315733 5.23237 9.87189
RightShoulder  2.02715 3.67249 22.8971
RightArm  -52.6481 1.79712 59.5497
RightForeArm  46.0577 33.5873 4.86057
RightHand  -1.52613 -1.7518 -46.53
LeftUpLeg  -30.9938 -18.7269 34.8078
LeftLeg  105.656 -8.57056 24.37
LeftFoot  -1.41119 0.0496973 -0.474167
LeftToes  2.72522e-012 8.43823e-011 6.24977e-012
3588
root  -65.9831 3.46779 3.6974 70.5315 21.4897 174.02
RightUpLeg  -47.4722 -27.0697 -10.3449
RightLeg  104.157 -1.97044 7.95145
RightFoot  -3.43594 -0.598563 8.30861
RightToes  -1.33073e-015 0 -3.6325e-017
Spine  14.2815 -0.784784 3.53891
Spine1  8.80805 1.4397 -5.97707
HEad  46.897 2.88035 -4.08571
LeftShoulder1  1.65782 -7.52708 -8.02692
LeftArm  15.5952 -7.64168 -61.6359
LeftForeArm  38.3652 -29.0433 -4.2121
LeftHand  -0.0213844 5.34981 10.7667
RightShoulder  1.77732 2.60861 23.9303
RightArm  -53.1208 1.00174 58.2771
RightForeArm  45.8164 39.6256 6.42417
RightHand  -1.36276 -2.15961 -46.8174
LeftUpLeg  -29.8273 -21.0782 33.3458
LeftLeg  105.719 -8.17385 23.2553
LeftFoot  -1.96552 0.105112 -1.1376
LeftToes  2.72522e-012 8.43823e-011 6.24977e-012
3589
root  -65.8977 3.51941 3.66976 70.8957 22.0827 172.285
RightUpLeg  -48.081 -31.1705 -12.7685
RightLeg  103.696 -1.61918 6.95903
RightFoot  -2.62657 -0.591967 7.52238
RightToes  -1.33073e-015 0 -3.6325e-017
Spine  13.2107 -1.25279 3.74251
Spine1  9.48181 0.78004 -5.09938
HEad  46.817 0.984641 -3.97177
LeftShoulder1  1.87814 -8.78988 -8.27588
LeftArm  21.8424 -11.708 -63.491
LeftForeArm  37.544 -28.9992 -4.24437
LeftHand  -0.00855179 5.49087 10.8979
RightShoulder  1.58536 1.81788 24.8438
RightArm  -53.4925 0.736239 57.0494
RightForeArm  47.0487 45.7916 8.24548
RightHand  -1.26462 -2.41037 -47.1134
LeftUpLeg  -29.0827 -23.0872 32.2877
LeftLeg  105.726 -7.69614 21.9831
LeftFoot  -2.13184 0.158276 -1.80611
LeftToes  2.72522e-012 8.43823e-011 6.24977e-012
3590
root  -65.809 3.58833 3.63965 71.3547 22.723 169.663
RightUpLeg  -49.1777 -34.1318 -14.1006
RightLeg  102.666 -1.20643 5.89496
RightFoot  -2.65202 -0.592752 7.55245
RightToes  -1.33073e-015 0 -3.6325e-017
Spine  11.7409 -1.76689 4.54351
Spine1  10.4258 0.327588 -4.71097
HEad  46.5357 -0.398706 -4.0196
LeftShoulder1  2.06877 -9.95004 -8.36175
LeftArm  28.0216 -15.74 -65.5607
LeftForeArm  36.6489 -29.3139 -4.36046
LeftHand  -0.00923788 5.48584 10.7778
RightShoulder  1.38813 1.0273 25.9582
RightArm  -52.4387 0.66469 56.4053
RightForeArm  49.8938 52.5246 10.6783
RightHand  -1.39665 -2.19185 -48.3012
LeftUpLeg  -28.1562 -24.1682 31.5525
LeftLeg  105.645 -7.0148 20.2311
LeftFoot  -1.97956 0.193426 -2.21719
LeftToes  2.72522e-012 8.43823e-011 6.24977e-012
3591
root  -65.4703 3.70893 3.48658 71.0469 22.2218 166.659
RightUpLeg  -50.2885 -37.6228 -16.3721
RightLeg  102.737 -1.14736 5.64095
RightFoot  -3.56604 -0.458934 6.38815
RightToes  -1.33073e-015 0 -3.6325e-017
Spine  10.9521 -2.0814 3.17875
Spine1  11.5802 -0.178864 -4.82926
HEad  45.4976 -0.758332 -4.09854
LeftShoulder1  2.30247 -11.1573 -8.70804
LeftArm  32.1105 -19.7002 -67.5418
LeftForeArm  36.8442 -29.839 -4.46808
LeftHand  0.00133195 5.60576 10.7327
RightShoulder  1.22496 0.409828 26.8985
RightArm  -50.6563 0.711556 56.377
RightForeArm  56.2859 59.9399 14.2099
RightHand  -0.940803 -3.2012 -47.8566
LeftUpLeg  -25.7276 -25.0146 29.7234
LeftLeg  105.565 -6.19392 18.0164
LeftFoot  -2.60598 0.25251 -3.10115
LeftToes  2.72522e-012 8.43823e-011 6.24977e-012
